<?xml version="1.0" encoding="utf-8"?>
<!-- Generator: Adobe Illustrator 22.1.0, SVG Export Plug-In . SVG Version: 6.00 Build 0)  -->
<svg version="1.1" id="illustration" xmlns="http://www.w3.org/2000/svg" xmlns:xlink="http://www.w3.org/1999/xlink" x="0px"
	 y="0px" viewBox="0 0 729 854" style="enable-background:new 0 0 729 854;" xml:space="preserve">
<style type="text/css">
	.st0{opacity:0.2;fill:url(#SVGID_1_);enable-background:new    ;}
	.st1{fill:#F2C94C;}
	.st2{opacity:0.15;fill:#FFFFFF;enable-background:new    ;}
	.st3{opacity:7.000000e-02;fill:url(#SVGID_2_);enable-background:new    ;}
	.st4{opacity:0.3;fill:url(#SVGID_3_);enable-background:new    ;}
	.st5{fill:#F2994A;}
	.st6{opacity:0.2;fill:url(#SVGID_4_);enable-background:new    ;}
	.st7{opacity:0.3;fill:url(#SVGID_5_);enable-background:new    ;}
	.st8{opacity:0.3;fill:url(#SVGID_6_);enable-background:new    ;}
	.st9{opacity:0.2;fill:url(#SVGID_7_);enable-background:new    ;}
	.st10{opacity:5.000000e-02;fill:url(#SVGID_8_);enable-background:new    ;}
	.st11{opacity:0.3;fill:#FFFFFF;enable-background:new    ;}
</style>
<linearGradient id="SVGID_1_" gradientUnits="userSpaceOnUse" x1="177.2351" y1="240.3685" x2="139.5649" y2="305.6315" gradientTransform="matrix(1 0 0 1 0 62)">
	<stop  offset="0" style="stop-color:#FFFFFF"/>
	<stop  offset="1" style="stop-color:#FFFFFF;stop-opacity:0"/>
</linearGradient>
<path class="st0" d="M241.9,339.7l-167-96.4v87l167,96.4V339.7z"/>
<path class="st1" d="M108.8,292.1c0,7.2-4.2,10.5-9.5,7.5c-5.2-3-9.5-11.3-9.5-18.5s4.2-10.5,9.5-7.5
	C104.6,276.6,108.8,284.9,108.8,292.1z"/>
<path class="st2" d="M117.6,286.3l60.9,35.1V335l-60.9-35V286.3z"/>
<path class="st2" d="M117.7,315.5l107,61.7v13.6l-107-61.7V315.5z"/>
<linearGradient id="SVGID_2_" gradientUnits="userSpaceOnUse" x1="575.4033" y1="64.1203" x2="386.6043" y2="391.2167" gradientTransform="matrix(1 0 0 1 0 62)">
	<stop  offset="0" style="stop-color:#FFFFFF"/>
	<stop  offset="1" style="stop-color:#FFFFFF;stop-opacity:0"/>
</linearGradient>
<path class="st3" d="M373.1,58.8l187.2,108.1v403.2l-187.2-108V58.8z"/>
<linearGradient id="SVGID_3_" gradientUnits="userSpaceOnUse" x1="532.1102" y1="100.5086" x2="343.3114" y2="427.6042" gradientTransform="matrix(1 0 0 1 0 62)">
	<stop  offset="0" style="stop-color:#FFFFFF"/>
	<stop  offset="1" style="stop-color:#FFFFFF;stop-opacity:0"/>
</linearGradient>
<path class="st4" d="M329.8,95.2L517,203.3v403.2l-187.2-108V95.2z"/>
<path class="st2" d="M347.9,319.9l150.4,86.8v13.6l-150.4-86.8V319.9z"/>
<path class="st2" d="M358.4,353l129.3,74.7v13.6l-129.3-74.7L358.4,353z"/>
<path class="st5" d="M280.9,406v-45l110.5,63.8v45L280.9,406z"/>
<linearGradient id="SVGID_4_" gradientUnits="userSpaceOnUse" x1="642.3778" y1="421.4421" x2="767.6839" y2="469.3982" gradientTransform="matrix(1 0 0 1 0 62)">
	<stop  offset="0" style="stop-color:#FFFFFF"/>
	<stop  offset="1" style="stop-color:#FFFFFF;stop-opacity:0"/>
</linearGradient>
<path class="st6" d="M666.4,396.4c-8.6-13.7-20.5-15.5-21-15.6c-1.2-0.2-1.9,0.9-1.9,2.5v36.2c0,12.3-4.2,20.2-12.5,23.6
	c-0.8,0.3-1.3,1.2-1.3,2.4c0,17.4,0.3,92.1,0.4,115.4c0,3.9,2.7,8.5,6,10.4c17.8,10.3,68.9,39.8,68.9,39.8
	c13.6,7.9,22.3,3,23.8-13.2l0.1-71.7c0-10.9-1.9-22.1-7.9-31.4c-3.4-5.3-7.4-9.4-11.6-11.8l-34.9-20.1v-33.6
	C674.6,416.1,671.8,405.1,666.4,396.4z"/>
<path class="st1" d="M583,414.6l39,22.5v127.6l-39-22.5V414.6z"/>
<linearGradient id="SVGID_5_" gradientUnits="userSpaceOnUse" x1="232.6885" y1="47.6566" x2="79.0384" y2="167.9607" gradientTransform="matrix(1 0 0 1 0 62)">
	<stop  offset="0" style="stop-color:#FFFFFF"/>
	<stop  offset="1" style="stop-color:#FFFFFF;stop-opacity:0"/>
</linearGradient>
<path class="st7" d="M297.6,171.8L0,0l0.1,155.1l271.3,156.6l26.3,38.9L297.6,171.8z"/>
<path class="st2" d="M221.1,165.3l-65.2-37.6v13.6l65.2,37.6V165.3z"/>
<path class="st2" d="M221.1,192.6L59.6,99.4V113l161.5,93.2V192.6z"/>
<path class="st2" d="M221.1,219.9L26.3,107.4V121l194.8,112.5V219.9z"/>
<path class="st5" d="M237.1,188.8c0,12.8,7.6,27.5,16.9,32.9c9.3,5.4,16.9-0.6,16.9-13.4c0-12.8-7.6-27.5-16.9-32.9
	C244.7,170,237.1,176,237.1,188.8z"/>
<linearGradient id="SVGID_6_" gradientUnits="userSpaceOnUse" x1="553.7539" y1="469.3553" x2="592.225" y2="781.3863" gradientTransform="matrix(1 0 0 1 0 62)">
	<stop  offset="0" style="stop-color:#FFFFFF"/>
	<stop  offset="1" style="stop-color:#FFFFFF;stop-opacity:0"/>
</linearGradient>
<path class="st8" d="M425.9,526.3l297.6,171.8l0.1,155.1L452.2,696.6l-26.2,8.6L425.9,526.3z"/>
<path class="st2" d="M502.4,608.3l65.2,37.6v13.6l-65.2-37.6L502.4,608.3z"/>
<path class="st2" d="M502.4,635.5l117.7,67.9V717l-117.7-67.9L502.4,635.5z"/>
<path class="st2" d="M502.4,662.8l152.3,87.9v13.6l-152.3-87.9L502.4,662.8z"/>
<path class="st1" d="M486.4,613.2c0,12.8-7.6,18.8-16.9,13.4c-9.3-5.4-16.9-20.1-16.9-32.9c0-12.8,7.6-18.8,16.9-13.4
	C478.8,585.7,486.3,600.4,486.4,613.2z"/>
<linearGradient id="SVGID_7_" gradientUnits="userSpaceOnUse" x1="343.7672" y1="476.6993" x2="291.4091" y2="518.0192" gradientTransform="matrix(1 0 0 1 0 62)">
	<stop  offset="0" style="stop-color:#FFFFFF"/>
	<stop  offset="1" style="stop-color:#FFFFFF;stop-opacity:0"/>
</linearGradient>
<path class="st9" d="M322.9,499.7c6,3.4,10.8,11.8,10.8,18.7v30.5l20.2,11.6c6,3.4,10.8,11.8,10.8,18.7s-4.8,9.7-10.8,6.3
	l-20.2-11.6v30.5c0,6.9-4.8,9.7-10.8,6.3s-10.8-11.8-10.8-18.7v-30.5l-20.2-11.6c-6-3.4-10.8-11.8-10.8-18.7s4.8-9.7,10.8-6.3
	l20.2,11.6V506C312,499.1,316.9,496.2,322.9,499.7z"/>
<linearGradient id="SVGID_8_" gradientUnits="userSpaceOnUse" x1="441.3395" y1="160.909" x2="377.2385" y2="215.718" gradientTransform="matrix(1 0 0 1 0 62)">
	<stop  offset="0" style="stop-color:#FFFFFF"/>
	<stop  offset="1" style="stop-color:#FFFFFF;stop-opacity:0"/>
</linearGradient>
<path class="st10" d="M423,305c-85.8-111.6-23.7-152,0-86.6C446.8,180.8,508.8,293.5,423,305z"/>
<path class="st11" d="M403,325c-85.8-111.6-23.7-152,0-86.6C426.8,200.8,488.8,313.5,403,325z"/>
</svg>
